<svg width="248" height="55" viewBox="0 0 248 55" fill="none" xmlns="http://www.w3.org/2000/svg">
<g clip-path="url(#clip0_838_72)">
<path d="M42.0022 0.57373V53.7559H31.3311V49.3122C28.5623 52.6559 24.552 54.3285 19.3003 54.3285C15.6719 54.3285 12.3887 53.5162 9.45358 51.8915C6.51704 50.2669 4.21317 47.9499 2.54199 44.939C0.870808 41.9295 0.0352173 38.4405 0.0352173 34.4749C0.0352173 30.5092 0.870808 27.0203 2.54199 24.0108C4.21317 20.9999 6.51704 18.6828 9.45358 17.0582C12.3887 15.4336 15.6719 14.6213 19.3003 14.6213C24.218 14.6213 28.0606 16.174 30.8309 19.2808V0.57373H42.0022ZM21.2336 45.1548C24.0504 45.1548 26.3894 44.1873 28.2523 42.251C30.1137 40.3162 31.0451 37.7241 31.0451 34.4749C31.0451 31.2257 30.1137 28.6336 28.2523 26.6987C26.3894 24.7639 24.0504 23.795 21.2336 23.795C18.3689 23.795 16.0059 24.7639 14.1444 26.6987C12.2816 28.6336 11.3516 31.2257 11.3516 34.4749C11.3516 37.7241 12.2816 40.3162 14.1444 42.251C16.0059 44.1873 18.3689 45.1548 21.2336 45.1548Z" fill="#1F252E"/>
<path d="M56.5834 34.4753C56.5834 37.6286 57.4796 40.1981 59.2692 42.181C61.0601 44.1638 63.3513 45.1552 66.1441 45.1552C68.937 45.1552 71.2295 44.1638 73.0191 42.181C74.81 40.1981 75.7048 37.6286 75.7048 34.4753C75.7048 31.322 74.81 28.7412 73.0191 26.7344C71.2295 24.7276 68.937 23.7249 66.1441 23.7249C63.3513 23.7249 61.0601 24.7276 59.2692 26.7344C57.4796 28.7412 56.5834 31.322 56.5834 34.4753ZM86.5182 34.4753C86.5182 40.0656 84.5849 44.773 80.7184 48.5948C76.8504 52.418 71.9933 54.3289 66.1441 54.3289C60.2964 54.3289 55.4379 52.418 51.5713 48.5948C47.7034 44.773 45.7701 40.0656 45.7701 34.4753C45.7701 28.8851 47.7034 24.1663 51.5713 20.3192C55.4379 16.4734 60.2964 14.5498 66.1441 14.5498C71.9933 14.5498 76.8504 16.4734 80.7184 20.3192C84.5849 24.1663 86.5182 28.8851 86.5182 34.4753Z" fill="#FB882C"/>
<path d="M112.85 14.5494C117.528 14.5494 121.61 16.3771 125.095 20.0324C128.581 23.6878 130.324 28.3826 130.324 34.1167C130.324 39.8508 128.533 44.6527 124.953 48.5239C121.372 52.3936 117.301 54.3285 112.741 54.3285C108.183 54.3285 104.398 52.4415 101.391 48.6663V53.7559H90.6482V0.57373H101.391V19.4951C104.352 16.198 108.17 14.5494 112.85 14.5494ZM101.247 34.5468C101.247 37.6522 102.12 40.1977 103.861 42.1805C105.604 44.1633 107.717 45.1548 110.199 45.1548C112.682 45.1548 114.855 44.1633 116.716 42.1805C118.578 40.1977 119.509 37.6522 119.509 34.5468C119.509 31.4414 118.602 28.8367 116.788 26.734C114.973 24.6313 112.802 23.5807 110.271 23.5807C107.74 23.5807 105.604 24.62 103.861 26.6987C102.12 28.7774 101.247 31.3935 101.247 34.5468ZM209.943 54.9419C208.877 54.9419 207.835 54.8108 206.816 54.5485C205.798 54.2848 204.986 53.9548 204.382 53.5557L205.623 50.8804C206.195 51.2471 206.888 51.546 207.7 51.7759C208.512 52.0072 209.306 52.1228 210.087 52.1228C211.662 52.1228 212.45 51.7322 212.45 50.9523C212.45 50.5857 212.234 50.3233 211.805 50.164C211.375 50.0046 210.715 49.8692 209.823 49.7578C208.774 49.5985 207.906 49.4151 207.222 49.2078C206.538 49.0005 205.944 48.6353 205.444 48.1092C204.942 47.5832 204.692 46.8344 204.692 45.8627C204.692 45.0504 204.927 44.3298 205.396 43.7008C205.865 43.0718 206.55 42.5824 207.449 42.2313C208.348 41.8815 209.411 41.7067 210.635 41.7067C211.543 41.7067 212.446 41.8054 213.345 42.0042C214.244 42.2045 214.988 42.4781 215.577 42.8292L214.335 45.4805C213.205 44.8445 211.972 44.5258 210.635 44.5258C209.84 44.5258 209.243 44.6372 208.846 44.86C208.447 45.0828 208.248 45.3691 208.248 45.7203C208.248 46.118 208.464 46.3972 208.893 46.5565C209.323 46.7159 210.007 46.8668 210.947 47.0107C211.996 47.1855 212.856 47.3731 213.524 47.5719C214.193 47.7708 214.774 48.1332 215.267 48.6592C215.76 49.1839 216.007 49.9172 216.007 50.8564C216.007 51.6532 215.768 52.3612 215.291 52.9831C214.813 53.6036 214.117 54.0859 213.201 54.4286C212.287 54.7713 211.2 54.9419 209.943 54.9419ZM218.298 41.8971H222.022V54.7515H218.298V41.8971ZM220.161 40.106C219.476 40.106 218.919 39.9058 218.489 39.5081C218.06 39.1104 217.845 38.6168 217.845 38.0273C217.845 37.4378 218.06 36.9442 218.489 36.5451C218.919 36.1474 219.476 35.9486 220.161 35.9486C220.844 35.9486 221.402 36.139 221.832 36.5212C222.262 36.9033 222.476 37.3814 222.476 37.9554C222.476 38.5759 222.262 39.0907 221.832 39.4968C221.402 39.903 220.844 40.106 220.161 40.106ZM233.219 54.1296C232.852 54.4004 232.403 54.6035 231.869 54.7389C231.336 54.8742 230.784 54.9419 230.21 54.9419C228.667 54.9419 227.481 54.5513 226.654 53.7714C225.827 52.9916 225.412 51.8436 225.412 50.3304V39.054H229.137V42.1833H232.311V45.0504H229.137V50.2839C229.137 50.8254 229.272 51.2428 229.542 51.5376C229.813 51.8323 230.202 51.979 230.712 51.979C231.284 51.979 231.794 51.8196 232.239 51.5023L233.219 54.1296ZM241.789 51.955C242.457 51.955 243.05 51.8563 243.567 51.6574C244.084 51.4572 244.565 51.1427 245.011 50.7126L246.992 52.8632C245.782 54.2495 244.016 54.9419 241.693 54.9419C240.244 54.9419 238.964 54.6599 237.849 54.0944C236.736 53.5289 235.876 52.7433 235.272 51.7407C234.666 50.7365 234.364 49.5985 234.364 48.3236C234.364 47.0656 234.663 45.9304 235.259 44.9192C235.856 43.9081 236.675 43.1198 237.718 42.5542C238.761 41.9887 239.934 41.7067 241.239 41.7067C242.465 41.7067 243.578 41.9648 244.582 42.4823C245.583 42.9999 246.384 43.7487 246.98 44.7289C247.577 45.7076 247.876 46.8668 247.876 48.2051L238.374 50.0441C238.645 50.6815 239.071 51.1596 239.651 51.4783C240.233 51.7956 240.945 51.955 241.789 51.955ZM241.239 44.5258C240.301 44.5258 239.536 44.8276 238.948 45.4326C238.359 46.039 238.048 46.8753 238.017 47.9414L244.27 46.723C244.095 46.0545 243.738 45.5214 243.196 45.1223C242.655 44.7246 242.003 44.5258 241.239 44.5258ZM156.849 24.6553C153.65 24.6553 151.263 25.7905 149.688 28.0596C148.112 30.3301 147.323 33.3283 147.323 37.0557V53.7559H136.582V15.1953H147.323V20.2835C148.708 18.7068 150.439 17.3685 152.516 16.2699C154.593 15.1713 156.705 14.5973 158.854 14.5494L158.926 24.6553H156.849Z" fill="#1F252E"/>
<path d="M170.969 34.4753C170.969 37.6286 171.864 40.1981 173.655 42.181C175.444 44.1638 177.737 45.1552 180.53 45.1552C183.323 45.1552 185.614 44.1638 187.405 42.181C189.194 40.1981 190.091 37.6286 190.091 34.4753C190.091 31.322 189.194 28.7412 187.405 26.7344C185.614 24.7276 183.323 23.7249 180.53 23.7249C177.737 23.7249 175.444 24.7276 173.655 26.7344C171.864 28.7412 170.969 31.322 170.969 34.4753ZM200.904 34.4753C200.904 40.0656 198.971 44.773 195.103 48.5948C191.236 52.418 186.378 54.3289 180.53 54.3289C174.681 54.3289 169.824 52.418 165.956 48.5948C162.089 44.773 160.154 40.0656 160.154 34.4753C160.154 28.8851 162.089 24.1663 165.956 20.3192C169.824 16.4734 174.681 14.5498 180.53 14.5498C186.378 14.5498 191.236 16.4734 195.103 20.3192C198.971 24.1663 200.904 28.8851 200.904 34.4753Z" fill="#62A336"/>
</g>
<defs>
<clipPath id="clip0_838_72">
<rect width="248" height="55" fill="white"/>
</clipPath>
</defs>
</svg>
